{"title":"Freezing","uid":10641782,"size":834915936,"categoryP":"video","categoryS":"tv_shows","magnet":"?xt=urn:btih:3547f533d2d6a5ede10a5321a1c905f86c531c95&amp;dn=Freezing&amp;tr=udp%3A%2F%2Ftracker.openbittorrent.com%3A80&amp;tr=udp%3A%2F%2Fopen.demonii.com%3A1337&amp;tr=udp%3A%2F%2Ftracker.coppersurfer.tk%3A6969&amp;tr=udp%3A%2F%2Fexodus.desync.com%3A6969","seeders":1,"leechers":0,"uploader":"p7trick","files":-1,"time":1406473227,"description":"justdubs\n\nFreezing eps 1-12 ENGLISH DUBBED\nFreezing OVA eps 1-6 ENGLISH DUBBED\n_________________________________________________________\n\nFormat                                   : MPEG-4\nFormat profile                           : Base Media\nCodec ID                                 : isom\nFile size                                : 62.3 MiB\nDuration                                 : 23mn 42s\nOverall bit rate mode                    : Variable\nOverall bit rate                         : 368 Kbps\n\nVideo\nID                                       : 1\nFormat                                   : AVC\nFormat/Info                              : Advanced Video Codec\nFormat profile                           : &lt;a class=&quot;__cf_email__&quot; href=&quot;/cdn-cgi/l/email-protection&quot; data-cfemail=&quot;034b6a646b434f302d33&quot;&gt;[email&amp;#160;protected]&lt;/a&gt;&lt;script cf-hash='f9e31' type=&quot;text/javascript&quot;&gt;\n/* &lt;![CDATA[ */!function(){try{var t=&quot;currentScript&quot;in document?document.currentScript:function(){for(var t=document.getElementsByTagName(&quot;script&quot;),e=t.length;e--;)if(t[e].getAttribute(&quot;cf-hash&quot;))return t[e]}();if(t&amp;&amp;t.previousSibling){var e,r,n,i,c=t.previousSibling,a=c.getAttribute(&quot;data-cfemail&quot;);if(a){for(e=&quot;&quot;,r=parseInt(a.substr(0,2),16),n=2;a.length-n;n+=2)i=parseInt(a.substr(n,2),16)^r,e+=String.fromCharCode(i);e=document.createTextNode(e),c.parentNode.replaceChild(e,c)}}}catch(u){}}();/* ]]&gt; */&lt;/script&gt;\nFormat settings, CABAC                   : Yes\nFormat settings, ReFrames                : 6 frames\nCodec ID                                 : avc1\nCodec ID/Info                            : Advanced Video Coding\nDuration                                 : 23mn 42s\nBit rate mode                            : Variable\nBit rate                                 : 300 Kbps\nMaximum bit rate                         : 1 836 Kbps\nWidth                                    : 704 pixels\nHeight                                   : 392 pixels\nDisplay aspect ratio                     : 16:9\nFrame rate mode                          : Constant\nFrame rate                               : 29.970 fps\nColor space                              : YUV\nChroma subsampling                       : 4:2:0\nBit depth                                : 8 bits\nScan type                                : Progressive\nBits/(Pixel*Frame)                       : 0.036\nStream size                              : 50.9 MiB (82%)\n\n\nAudio\nID                                       : 2\nFormat                                   : AAC\nFormat/Info                              : Advanced Audio Codec\nFormat profile                           : HE-AAC / LC\nCodec ID                                 : 40\nDuration                                 : 23mn 42s\nBit rate mode                            : Variable\nBit rate                                 : 64.0 Kbps\nMaximum bit rate                         : 94.7 Kbps\nChannel(s)                               : 2 channels\nChannel positions                        : Front: L R\nSampling rate                            : 44.1 KHz / 22.05 KHz\nCompression mode                         : Lossy\nStream size                              : 10.8 MiB (17%)\nLanguage                                 : English\n_________________________________________________________\n\nSummary:\nIn a futuristic world where Earth has been invaded and is at war with aliens from another dimension called the Nova, a boy named Aoi Kazuya enrols for training at a special school for genetically modified girls called Pandoras, who battle the aliens, and their male partners, called Limiters, who use a special power called freezing to limit their opponent's mobility. The protagonist makes the acquaintance of an unusual older girl named Satellizer el Bridget who appears to be the most powerful Pandora in her class, but has not yet chosen a male partner to be her Limiter, and in spite of the warnings of all his friends, he decides to be her Limiter.\n\nTwitter - @p7tricktorrent\nFacebook - /p7tricktorrent\nTPB - /user/p7trick/\nKAT - /user/iPirate7\n_________________________________________________________\n\nSEED!\n\nshare ratio:\n&quot;Scumbag = 0.1:1\nLeecher = 0.999:1\nMinimum = 1:1\nGood = 3:1\nGreat = 5:1\nAwesome = 10:1\n1337 = 100:1&quot;\t\t\t","torrent":{"xt":"urn:btih:3547f533d2d6a5ede10a5321a1c905f86c531c95","amp;dn":"Freezing","amp;tr":["udp%3A%2F%2Ftracker.openbittorrent.com%3A80","udp%3A%2F%2Fopen.demonii.com%3A1337","udp%3A%2F%2Ftracker.coppersurfer.tk%3A6969","udp%3A%2F%2Fexodus.desync.com%3A6969"],"infoHash":"3547f533d2d6a5ede10a5321a1c905f86c531c95","infoHashBuffer":{"type":"Buffer","data":[53,71,245,51,210,214,165,237,225,10,83,33,161,201,5,248,108,83,28,149]},"announce":[],"urlList":[]}}